<?xml version="1.0" encoding="UTF-8"?>
<!-- Generator: Adobe Illustrator 25.0.0, SVG Export Plug-In . SVG Version: 6.00 Build 0)  -->
<svg xmlns="http://www.w3.org/2000/svg" xmlns:xlink="http://www.w3.org/1999/xlink" version="1.1" id="Capa_1" x="0px" y="0px" viewBox="0 0 512 512" style="enable-background:new 0 0 512 512;" xml:space="preserve" width="512" height="512">
<g>
	<circle cx="256" cy="298.667" r="42.667"/>
	<path d="M480.768,87.936l-56.704-56.704c-5.674-5.585-11.957-10.515-18.731-14.699V64   c-0.071,58.881-47.786,106.596-106.667,106.667h-85.333C154.452,170.596,106.737,122.881,106.667,64V0   C47.786,0.071,0.071,47.786,0,106.667v298.667C0.071,464.215,47.786,511.93,106.667,512h298.667   C464.214,511.93,511.93,464.215,512,405.334V163.35C512.08,135.049,500.833,107.893,480.768,87.936z M256,384   c-47.128,0-85.333-38.205-85.333-85.333s38.205-85.333,85.333-85.333s85.333,38.205,85.333,85.333S303.128,384,256,384z"/>
	<path d="M213.333,128h85.333c35.346,0,64-28.654,64-64V1.366c-4.638-0.756-9.32-1.212-14.016-1.365H149.333v64   C149.333,99.346,177.987,128,213.333,128z"/>
</g>















</svg>
