<?xml version="1.0" encoding="UTF-8"?>
<svg xmlns="http://www.w3.org/2000/svg" id="Layer_1" data-name="Layer 1" viewBox="0 0 24 24" width="512" height="512"><path d="M10.247,9.752l4.187-4.186,4,4-4.186,4.187ZM8.833,11.166l-8,8a2.829,2.829,0,0,0,2,4.829,2.806,2.806,0,0,0,2-.829l8-8ZM18.667,17.3,20,19.962,21.333,17.3,24,15.962l-2.667-1.334L20,11.962l-1.333,2.666L16,15.962Zm-12-11.962L8,8,9.333,5.333,12,4,9.333,2.667,8,0,6.667,2.667,4,4Zm12.666-.666L20.5,7l1.167-2.333L24,3.5,21.667,2.333,20.5,0,19.333,2.333,17,3.5Z"/></svg>
