<?xml version="1.0" encoding="UTF-8"?>
<svg xmlns="http://www.w3.org/2000/svg" id="Layer_1" data-name="Layer 1" viewBox="0 0 24 24">
  <path d="m23.414,16.09l-8.674-3.944c-.03-.014-.06-.025-.09-.036-.728-.248-1.518-.065-2.062.479s-.727,1.334-.442,2.151l3.944,8.675c.159.351.506.579.892.586h.019c.378,0,.725-.214.895-.553l1.851-3.702,3.702-1.851c.345-.173.56-.527.553-.913-.007-.385-.235-.732-.586-.892Zm-10.502,5.869c-.172.015-.345.026-.52.033-.668-.661-2.41-2.518-3.624-4.992h.732c.552,0,1-.447,1-1s-.448-1-1-1h-1.53c-.291-.952-.47-1.96-.47-3s.18-2.047.472-3h8.057c.118.387.218.783.295,1.187.104.543.629.901,1.169.795.542-.103.898-.627.795-1.169-.052-.275-.114-.546-.183-.813h3.393c.013,0,.027,0,.04,0,.299.948.46,1.956.46,3.001,0,.307-.014.61-.041.91-.049.55.356,1.036.906,1.086.552.054,1.037-.356,1.086-.906.032-.359.049-.723.049-1.09C24,5.383,18.617,0,12,0S0,5.383,0,12s5.383,12,11.999,12h0c.367,0,.73-.017,1.088-.049.55-.049.957-.534.908-1.085-.049-.549-.533-.955-1.084-.907Zm-7.02-6.959h-3.392c-.013,0-.026,0-.04,0-.299-.948-.46-1.956-.46-3.001s.161-2.053.46-3.001c.013,0,.026,0,.04,0h3.392c-.245.955-.392,1.959-.392,3s.146,2.045.392,3Zm2.881-8c1.021-2.077,2.415-3.724,3.229-4.588.815.863,2.209,2.507,3.23,4.588h-6.459Zm11.885,0h-3.228c-.791-1.886-1.888-3.488-2.832-4.657,2.579.695,4.749,2.397,6.06,4.657ZM9.4,2.344c-.944,1.169-2.042,2.771-2.832,4.656h-3.226c1.31-2.26,3.479-3.962,6.058-4.656Zm-6.058,14.656h3.226c.79,1.886,1.888,3.487,2.832,4.656-2.578-.695-4.747-2.397-6.058-4.656Z"/>
</svg>
